#!OML:ASF E:\acrobat2\Project_11_07_03\Capture day 1\Session 1\Acrobat.ASF
:FULLY-SPECIFIED
:DEGREES
805
root 9.597 7.06778 16.2444 27.4425 -0.0184787 3.21909
lowerback 41.4653 -0.477787 -0.314568
upperback 22.4445 -0.541131 2.78867
thorax 5.12017 -0.54363 3.29043
lowerneck 2.05163 -2.80583 -4.34417
upperneck -11.8293 -3.66003 4.57151
head -4.08631 -1.87329 2.46605
rclavicle 2.34566e-014 4.67144e-015
rhumerus 63.5377 7.74097 -59.2703
rradius 64.9875
rwrist 374.64
rhand -17.053 -47.9486
rfingers 7.12502
rthumb 9.18418 282.271
lclavicle 2.34566e-014 4.67144e-015
lhumerus 64.797 -11.1152 70.8438
lradius 64.5339
lwrist -2.93867
lhand -53.6044 -30.1672
lfingers 7.12502
lthumb -26.0446 -1.93253
rfemur -138.738 -30.7385 36.7442
rtibia 32.8825
rfoot -222.793 4.22545
rtoes 3.69518
lfemur -140.287 30.1022 -38.0479
ltibia 35.5664
lfoot -567.481 13.2303
ltoes 8.59438
806
root 9.59511 7.18394 16.2172 27.433 0.165929 3.13183
lowerback 40.8886 -0.414775 -0.325294
upperback 22.1591 -0.469758 2.74126
thorax 4.94416 -0.497167 3.21946
lowerneck 1.57926 -2.66027 -4.90312
upperneck -12.0757 -3.50349 4.25642
head -4.08824 -1.7494 2.44741
rclavicle 3.57812e-015 7.15625e-015
rhumerus 63.3681 7.7259 -58.9742
rradius 62.3481
rwrist 372.829
rhand -17.0905 -46.989
rfingers 7.12502
rthumb 9.14804 283.229
lclavicle 3.57812e-015 7.15625e-015
lhumerus 65.8994 -11.6445 69.0456
lradius 60.6207
lwrist -0.974937
lhand -53.0946 -32.3368
lfingers 7.12502
lthumb -25.5564 -4.03114
rfemur -138.007 -30.7888 36.613
rtibia 33.5987
rfoot -222.171 4.21919
rtoes 3.31383
lfemur -139.271 29.9033 -37.4616
ltibia 36.3044
lfoot -567.194 12.7865
ltoes 6.41898
807
root 9.59451 7.32539 16.1888 27.4594 0.334704 2.97201
lowerback 40.2703 -0.347491 -0.292393
upperback 21.8407 -0.381261 2.72296
thorax 4.74576 -0.441625 3.15186
lowerneck 1.13665 -2.48034 -5.48708
upperneck -12.5849 -3.30635 3.84467
head -4.19536 -1.59608 2.40746
rclavicle 1.11319e-014 2.54941e-014
rhumerus 63.4362 7.73089 -58.8206
rradius 59.206
rwrist 370.841
rhand -16.765 -45.8174
rfingers 7.12502
rthumb 9.46207 284.415
lclavicle 1.11319e-014 2.54941e-014
lhumerus 67.0961 -12.0742 67.0527
lradius 56.3311
lwrist 1.24672
lhand -52.3 -33.9399
lfingers 7.12502
lthumb -24.7951 -5.5273
rfemur -137.176 -30.8659 36.5201
rtibia 34.4577
rfoot -221.302 4.05956
rtoes 2.85163
lfemur -138.241 29.8353 -36.8719
ltibia 37.1788
lfoot -566.527 12.6919
ltoes 5.44191
808
root 9.5955 7.48859 16.16 27.4947 0.483046 2.78004
lowerback 39.6299 -0.267752 -0.258331
upperback 21.5076 -0.278422 2.73298
thorax 4.54175 -0.382238 3.10971
lowerneck 0.72853 -2.29522 -6.04391
upperneck -13.3358 -3.10992 3.34976
head -4.4009 -1.43423 2.34073
rclavicle 9.14409e-015 2.51711e-014
rhumerus 63.8201 7.71299 -58.7354
rradius 55.5287
rwrist 368.585
rhand -15.9279 -44.5079
rfingers 7.12502
rthumb 10.2697 285.763
lclavicle 9.14409e-015 2.51711e-014
lhumerus 68.3549 -12.395 64.9476
lradius 51.8346
lwrist 3.66031
lhand -51.016 -34.4309
lfingers 7.12502
lthumb -23.5639 -5.85448
rfemur -136.245 -31.0029 36.4337
rtibia 35.4458
rfoot -220.253 3.78996
rtoes 2.2882
lfemur -137.203 29.8718 -36.309
ltibia 38.162
lfoot -565.474 12.8751
ltoes 5.75882
809
root 9.59763 7.66978 16.1321 27.5297 0.609247 2.60615
lowerback 38.9538 -0.163547 -0.278126
upperback 21.17 -0.162441 2.77018
thorax 4.34815 -0.323973 3.12084
lowerneck 0.415005 -2.12695 -6.53052
upperneck -14.7013 -2.921 2.94498
head -4.32923 -1.28877 2.09545
rclavicle 9.54166e-015 8.64713e-015
rhumerus 64.5078 7.63751 -58.7155
rradius 51.3656
rwrist 366.034
rhand -14.3128 -43.1585
rfingers 7.12502
rthumb 11.8275 287.195
lclavicle 9.54166e-015 8.64713e-015
lhumerus 69.6681 -12.6266 62.74
lradius 47.2176
lwrist 6.18323
lhand -49.0109 -33.4141
lfingers 7.12502
lthumb -21.6395 -4.60331
rfemur -135.224 -31.236 36.3141
rtibia 36.5309
rfoot -219.056 3.39536
rtoes 1.49304
lfemur -136.176 29.9709 -35.831
ltibia 39.2257
lfoot -564.102 13.1249
ltoes 6.7985
810
root 9.59994 7.86564 16.1053 27.57 0.711828 2.48281
lowerback 38.2249 -0.0271446 -0.391102
upperback 20.8391 -0.0343303 2.82893
thorax 4.18307 -0.26977 3.20051
lowerneck 0.275283 -1.99661 -6.81667
upperneck -16.0485 -2.84669 2.26154
head -4.7353 -1.17036 1.94677
rclavicle -1.27222e-014 -2.29845e-015
rhumerus 65.4967 7.48162 -58.6916
rradius 46.7598
rwrist 363.115
rhand -11.6941 -42.1255
rfingers 7.12502
rthumb 14.3518 288.391
lclavicle -1.27222e-014 -2.29845e-015
lhumerus 71.0179 -12.7904 60.4271
lradius 42.6049
lwrist 8.68417
lhand -45.9875 -30.6456
lfingers 7.12502
lthumb -18.7337 -1.52769
rfemur -134.138 -31.5644 36.1483
rtibia 37.7012
rfoot -217.753 2.89902
rtoes 0.489878
lfemur -135.169 30.1072 -35.4709
ltibia 40.3621
lfoot -562.425 13.4139
ltoes 8.90481
811
root 9.6015 8.07359 16.0793 27.6203 0.795584 2.40591
lowerback 37.4404 0.139842 -0.597631
upperback 20.5203 0.105754 2.90213
thorax 4.05416 -0.218669 3.34221
lowerneck 0.224297 -1.89257 -6.98841
upperneck -17.5792 -2.83251 1.5642
head -5.21626 -1.07422 1.77872
rclavicle -1.59028e-014 -2.00734e-014
rhumerus 66.7373 7.25474 -58.5845
rradius 41.7834
rwrist 359.738
rhand -7.96315 -41.5801
rfingers 7.12502
rthumb 17.9443 289.228
lclavicle -1.59028e-014 -2.00734e-014
lhumerus 72.405 -12.908 57.9729
lradius 38.0635
lwrist 11.0101
lhand -41.6949 -26.2747
lfingers 7.12502
lthumb -14.6012 3.19128
rfemur -133.006 -31.9546 35.9637
rtibia 38.9565
rfoot -216.39 2.37228
rtoes -0.636146
lfemur -134.193 30.2559 -35.2461
ltibia 41.569
lfoot -560.573 13.514
ltoes 10.8979
812
root 9.60248 8.29122 16.0542 27.6854 0.869969 2.34455
lowerback 36.5983 0.321966 -0.854872
upperback 20.216 0.253149 2.97528
thorax 3.96622 -0.167887 3.51044
lowerneck 0.224606 -1.81934 -6.98472
upperneck -19.2303 -2.88684 0.822551
head -5.74992 -1.00757 1.57003
rclavicle -6.75868e-015 4.65902e-015
rhumerus 68.1053 6.99503 -58.2282
rradius 36.6534
rwrist 355.739
rhand -3.93045 -42.0249
rfingers 7.12502
rthumb 21.8207 289.185
lclavicle -6.75868e-015 4.65902e-015
lhumerus 73.8317 -13.0003 55.2914
lradius 33.6259
lwrist 12.9975
lhand -35.9778 -20.9197
lfingers 7.12502
lthumb -9.08837 8.86446
rfemur -131.843 -32.3692 35.8084
rtibia 40.3017
rfoot -214.991 1.84491
rtoes -1.65623
lfemur -133.253 30.4116 -35.1407
ltibia 42.8367
lfoot -558.696 13.3535
ltoes 12.1164
813
root 9.60359 8.51658 16.0305 27.771 0.941943 2.2699
lowerback 35.6924 0.502209 -1.11386
upperback 19.9298 0.40197 3.03686
thorax 3.92742 -0.115448 3.66978
lowerneck 0.291598 -1.76526 -6.82127
upperneck -21.0012 -2.99457 0.059449
head -6.34212 -0.964158 1.32895
rclavicle 7.55382e-015 9.54166e-015
rhumerus 69.4171 6.68189 -57.5677
rradius 31.6389
rwrist 351.729
rhand -0.273827 -43.0618
rfingers 7.12502
rthumb 25.3281 288.6
lclavicle 7.55382e-015 9.54166e-015
lhumerus 75.2589 -13.0846 52.2848
lradius 29.4093
lwrist 14.4143
lhand -28.6785 -15.2006
lfingers 7.12502
lthumb -2.04119 14.7694
rfemur -130.657 -32.7805 35.7177
rtibia 41.7178
rfoot -213.59 1.32819
rtoes -2.39767
lfemur -132.347 30.5807 -35.127
ltibia 44.1678
lfoot -556.877 13.0524
ltoes 12.6012
814
root 9.60511 8.74841 16.0086 27.8834 1.01537 2.17332
lowerback 34.7319 0.649851 -1.32511
upperback 19.6548 0.528525 3.05023
thorax 3.93161 -0.0661075 3.76226
lowerneck 0.397351 -1.71427 -6.56419
upperneck -22.8429 -3.11541 -0.632944
head -6.97505 -0.929111 1.09165
rclavicle 3.97569e-015 -1.34925e-014
rhumerus 70.4059 6.39388 -56.383
rradius 27.1751
rwrist 348.409
rhand 2.23483 -43.9545
rfingers 7.12502
rthumb 27.7292 288.07
lclavicle 3.97569e-015 -1.34925e-014
lhumerus 76.5782 -13.1757 48.7
lradius 25.6868
lwrist 15.0509
lhand -20.0031 -9.7403
lfingers 7.12502
lthumb 6.33685 20.1449
rfemur -129.463 -33.1671 35.7068
rtibia 43.1857
rfoot -212.221 0.835449
rtoes -2.83339
lfemur -131.446 30.7785 -35.1718
ltibia 45.5621
lfoot -555.142 12.8531
ltoes 12.9608
815
root 9.60731 8.98569 15.9893 28.0208 1.09162 2.0474
lowerback 33.7273 0.729373 -1.4329
upperback 19.3862 0.602536 2.96802
thorax 3.97543 -0.0269992 3.71615
lowerneck 0.527207 -1.64933 -6.25957
upperneck -24.7227 -3.20109 -1.16585
head -7.63762 -0.886546 0.890791
rclavicle -7.95139e-016 1.17283e-014
rhumerus 70.7927 6.25547 -54.292
rradius 23.8797
rwrist 346.541
rhand 3.69024 -44.2393
rfingers 7.12502
rthumb 29.1199 288.018
lclavicle -7.95139e-016 1.17283e-014
lhumerus 77.6561 -13.2969 43.8661
lradius 22.9569
lwrist 15.0847
lhand -10.2236 -4.9513
lfingers 7.12502
lthumb 15.7683 24.4264
rfemur -128.257 -33.5169 35.7798
rtibia 44.6994
rfoot -210.912 0.370489
rtoes -3.00747
lfemur -130.516 31.0128 -35.2448
ltibia 47.0264
lfoot -553.506 12.867
ltoes 13.6059
